<svg width="57" height="67" viewBox="0 0 57 67" fill="none" xmlns="http://www.w3.org/2000/svg">
<path d="M0 66.5V47.25C0 44.828 0.854 42.763 2.562 41.055C4.27 39.347 6.33383 38.4953 8.7535 38.5H15.7535C19.1625 38.5 22.0558 37.31 24.4335 34.93C26.8112 32.55 28.0012 29.6567 28.0035 26.25C28.0035 24.8103 27.489 23.5748 26.46 22.5435C25.4287 21.5145 24.192 21 22.75 21C21.2753 21 20.0328 20.4937 19.0225 19.481C18.0075 18.4707 17.5 17.227 17.5 15.75V0H31.57V3.703C31.57 4.599 31.8955 5.3725 32.5465 6.0235C33.1975 6.6745 33.971 7 34.867 7C40.9313 7 45.9807 9.24233 50.015 13.727C54.0493 18.2117 56.0677 23.5527 56.07 29.75V33.25C56.07 39.5827 53.8615 44.9575 49.4445 49.3745C45.0275 53.7915 39.6527 56 33.32 56H19.32C17.8803 56 16.6448 56.5145 15.6135 57.5435C14.5845 58.5748 14.07 59.8103 14.07 61.25V66.5H0Z" fill="black"/>
</svg>
